<?xml version="1.0" encoding="UTF-8" standalone="no"?>
<svg
   xmlns:dc="http://purl.org/dc/elements/1.1/"
   xmlns:cc="http://creativecommons.org/ns#"
   xmlns:rdf="http://www.w3.org/1999/02/22-rdf-syntax-ns#"
   xmlns:svg="http://www.w3.org/2000/svg"
   xmlns="http://www.w3.org/2000/svg"
   xmlns:sodipodi="http://sodipodi.sourceforge.net/DTD/sodipodi-0.dtd"
   xmlns:inkscape="http://www.inkscape.org/namespaces/inkscape"
   version="1.1"
   id="Layer_2"
   x="0px"
   y="0px"
   viewBox="0 0 4096 4096"
   xml:space="preserve"
   sodipodi:docname="bayer-logo-1.svg"
   width="4096"
   height="4096"
   inkscape:version="0.92.2 (5c3e80d, 2017-08-06)"
   inkscape:export-filename="G:\Users\suitedoalex\sites\bayer-logo-0.png"
   inkscape:export-xdpi="96"
   inkscape:export-ydpi="96"><metadata
     id="metadata16"><rdf:RDF><cc:Work
         rdf:about=""><dc:format>image/svg+xml</dc:format><dc:type
           rdf:resource="http://purl.org/dc/dcmitype/StillImage" /><dc:title></dc:title></cc:Work></rdf:RDF></metadata><defs
     id="defs14" /><sodipodi:namedview
     pagecolor="#ffffff"
     bordercolor="#666666"
     borderopacity="1"
     objecttolerance="10"
     gridtolerance="10"
     guidetolerance="10"
     inkscape:pageopacity="0"
     inkscape:pageshadow="2"
     inkscape:window-width="1600"
     inkscape:window-height="837"
     id="namedview12"
     showgrid="false"
     inkscape:zoom="0.06861727"
     inkscape:cx="2417.0941"
     inkscape:cy="2541.2115"
     inkscape:window-x="-8"
     inkscape:window-y="-8"
     inkscape:window-maximized="1"
     inkscape:current-layer="Layer_2" /><style
     type="text/css"
     id="style2">
	.st0{fill:#10384F;}
	.st1{fill:#89D329;}
	.st2{fill:#00BCFF;}
</style><g
     id="Bayer_Cross_1_"
     transform="matrix(38.77628,0,0,38.77628,566.7461,574.50136)"
     inkscape:export-filename="G:\Users\suitedoalex\sites\bayer-logo-6.png"
     inkscape:export-xdpi="1.6287767"
     inkscape:export-ydpi="1.6287767"><path
       class="st0"
       d="m 35.9,11.3 h 4.4 c 0.5,0 0.9,-0.4 0.9,-0.9 0,-0.5 -0.4,-0.9 -0.9,-0.9 h -4.4 z m 0,4.2 h 4.5 c 0.6,0 1,-0.4 1,-1 0,-0.6 -0.4,-1 -1,-1 H 35.9 Z M 43,12.3 c 0.6,0.6 1,1.4 1,2.3 0,1.8 -1.4,3.2 -3.2,3.2 H 33.5 V 7.3 h 7.2 c 1.7,0 3.1,1.4 3.1,3.1 -0.1,0.7 -0.4,1.4 -0.8,1.9 z m 1.7,18 H 42 l -0.8,-1.8 h -5.9 l -0.8,1.8 H 31.8 L 37,19.8 h 2.4 z m -6.5,-7.8 -1.8,3.8 H 40 Z m 3.6,10.1 h 3 l -5.3,6.8 v 3.7 H 37 v -3.7 l -5.3,-6.8 h 3 l 3.6,4.8 z m 13.9,0 v 2.3 h -7 v 1.8 h 6.8 V 39 h -6.8 v 2 h 7 v 2.3 H 46.2 V 32.6 Z m 7.7,6.5 h -1.9 v 4 H 59 V 32.6 h 6.4 c 1.8,0 3.2,1.5 3.2,3.3 0,1.5 -1,2.7 -2.3,3.1 l 3.1,4.1 h -3 z m 1.8,-4.3 h -3.6 v 2 h 3.6 c 0.6,0 1,-0.5 1,-1 0,-0.5 -0.5,-1 -1,-1 z m -32.4,8.3 h -2.7 l -0.8,-1.8 h -5.9 l -0.8,1.8 h -2.7 l 5.3,-10.5 h 2.4 z m -6.5,-7.8 -1.8,3.8 h 3.7 z m -15.9,1.3 h 4.4 c 0.5,0 0.9,-0.4 0.9,-0.9 0,-0.5 -0.4,-0.9 -0.9,-0.9 h -4.4 z m 0,4.2 h 4.5 c 0.6,0 1,-0.4 1,-1 0,-0.6 -0.4,-1 -1,-1 h -4.5 z m 7.1,-3.2 c 0.6,0.6 1,1.4 1,2.3 0,1.8 -1.4,3.2 -3.2,3.2 H 7.9 V 32.6 h 7.2 c 1.7,0 3.1,1.4 3.1,3.1 0,0.7 -0.3,1.4 -0.7,1.9 z M 43,45.3 v 2.3 h -7 v 1.8 h 6.8 v 2.3 H 36 v 2 h 7 V 56 H 33.5 V 45.3 Z m -1.8,16.3 c 0,-0.6 -0.4,-1 -1,-1 h -4.3 v 2 h 4.3 c 0.6,0 1,-0.4 1,-1 z m -7.8,7.3 V 58.4 h 7 c 1.8,0 3.2,1.5 3.2,3.3 0,1.4 -0.8,2.5 -2,3 l 3.2,4.2 h -3 l -3,-4 h -2.9 v 4 z"
       id="path4"
       inkscape:connector-curvature="0"
       style="fill:#10384f" /><path
       class="st1"
       d="M 76.1,35.6 C 74.9,15.8 58.4,0 38.2,0 18,0 1.5,15.8 0.3,35.6 c 0,0.8 0.1,1.6 0.2,2.4 0.8,6.6 3.3,12.7 7.1,17.8 6.9,9.4 18,15.5 30.6,15.5 C 20.6,71.3 6.2,57.6 5,40.4 4.9,39.6 4.9,38.8 4.9,38 4.9,37.2 4.9,36.4 5,35.6 6.2,18.4 20.6,4.7 38.2,4.7 c 12.6,0 23.7,6.1 30.6,15.5 3.8,5.1 6.3,11.2 7.1,17.8 0.1,0.8 0.2,1.6 0.2,2.3 0,-0.8 0.1,-1.6 0.1,-2.4 0,-0.7 0,-1.5 -0.1,-2.3"
       id="path6"
       inkscape:connector-curvature="0"
       style="fill:#89d329" /><path
       class="st2"
       d="M 0.3,40.4 C 1.5,60.2 18,76 38.2,76 58.4,76 74.9,60.2 76.1,40.4 76.1,39.6 76,38.8 75.9,38 75.1,31.4 72.6,25.3 68.8,20.2 61.9,10.8 50.8,4.7 38.2,4.7 c 17.6,0 32,13.7 33.2,30.9 0.1,0.8 0.1,1.6 0.1,2.4 0,0.8 0,1.6 -0.1,2.4 C 70.2,57.7 55.8,71.3 38.2,71.3 25.6,71.3 14.5,65.2 7.6,55.8 3.8,50.7 1.3,44.6 0.5,38 0.4,37.2 0.3,36.4 0.3,35.7 c 0,0.8 -0.1,1.6 -0.1,2.4 0,0.7 0,1.5 0.1,2.3"
       id="path8"
       inkscape:connector-curvature="0"
       style="fill:#00bcff" /></g></svg>